# Wavefront Obj file
# 
# verts: 52 uv-s: 114
mtllib 02_square.mtl

g Group23663
#pivot 0.000000 0.000000 0.000000

v -0.763324 2.431368 1.099220
v 0.763324 2.431368 1.099220
v -0.763324 2.431368 -1.099220
v 0.763324 2.431368 -1.099220
v -0.763324 -2.426368 -1.094220
v -0.763324 -2.426368 1.094220
v -0.763324 2.307847 1.094220
v -0.763324 2.307847 -1.094220
v 0.763324 -2.426368 1.094220
v 0.763324 -2.426368 -1.094220
v 0.763324 2.307847 -1.094220
v 0.763324 2.307847 1.094220
v -0.758324 -2.426368 1.099220
v 0.758324 -2.426368 1.099220
v 0.758324 2.307847 1.099220
v -0.758324 2.307847 1.099220
v -0.758324 -2.431368 -1.094220
v 0.758324 -2.431368 -1.094220
v 0.758324 -2.431368 1.094220
v -0.758324 -2.431368 1.094220
# 20 positions

vt 0.558322 0.198661
vt 0.729317 0.198662
vt 0.729318 0.444905
vt 0.558322 0.444904
vt 0.310394 0.450449
vt 0.190687 0.323374
vt 0.468051 0.269790
vt 0.542441 0.450386
# 8 texture coordinates

vn 0.000000 1.000000 0.000000
vn 0.000000 1.000000 0.000000
vn 0.000000 1.000000 0.000000
vn 0.000000 1.000000 0.000000
vn -0.366995 -0.854766 -0.367002
vn 0.366995 -0.854766 -0.367002
vn 0.366997 -0.854770 0.366990
vn -0.366997 -0.854770 0.366990
# 8 normals

usemtl default
f 1/1/1 2/2/2 4/3/4 3/4/3
f 17/5/5 18/6/6 19/7/7 20/8/8

g Group45844
#pivot 0.000000 0.000000 0.000000

# 0 positions

vt 0.180693 0.459733
vt 0.425816 0.459730
vt 0.425793 0.989995
vt 0.180669 0.990000
vt 0.597280 0.459727
vt 0.842405 0.459728
vt 0.842374 0.989994
vt 0.597256 0.989993
# 8 texture coordinates

vn -0.854759 -0.367006 -0.367006
vn -0.854764 -0.367007 0.366995
vn -0.849275 -0.424572 0.313800
vn -0.849269 -0.424582 -0.313804
vn 0.854764 -0.367007 0.366995
vn 0.854759 -0.367006 -0.367006
vn 0.849269 -0.424582 -0.313804
vn 0.849275 -0.424572 0.313800
# 8 normals

usemtl default
f 5/9/9 6/10/10 7/11/11 8/12/12
f 9/13/13 10/14/14 11/15/15 12/16/16

g Group10067
#pivot 0.000000 0.000000 0.000000

v -0.758324 -2.426368 1.099220
v 0.758324 -2.426368 1.099220
v 0.758324 2.307847 1.099220
v -0.758324 2.307847 1.099220
v -0.758324 -2.431368 -1.094220
v 0.758324 -2.431368 -1.094220
v 0.758324 -2.431368 1.094220
v -0.758324 -2.431368 1.094220
v 0.758324 -2.426368 -1.099220
v -0.758324 -2.426368 -1.099220
v -0.758324 2.307847 -1.099220
v 0.758324 2.307847 -1.099220
# 12 positions

vt 0.426608 0.459730
vt 0.596488 0.459728
vt 0.596464 0.989993
vt 0.426585 0.989995
vt 0.010025 0.459726
vt 0.179901 0.459733
vt 0.179877 0.990000
vt 0.010000 0.989994
# 8 texture coordinates

vn -0.367005 -0.367012 0.854757
vn 0.367005 -0.367012 0.854757
vn 0.313807 -0.424532 0.849292
vn -0.313807 -0.424532 0.849292
vn 0.366995 -0.367002 -0.854766
vn -0.366995 -0.367002 -0.854766
vn -0.313795 -0.424580 -0.849273
vn 0.313795 -0.424580 -0.849273
# 8 normals

usemtl default
f 21/17/17 22/18/18 23/19/19 24/20/20
f 29/21/21 30/22/22 31/23/23 32/24/24

g Group41765
#pivot 0.000000 0.000000 0.000000

v -0.814626 2.317847 -1.145523
v -0.814626 2.317847 1.145522
v -0.814626 2.426368 1.145522
v -0.814626 2.426368 -1.145523
v -0.811090 2.431368 -1.146988
v -0.811090 2.431368 1.146986
v -0.766860 2.312847 -1.102756
v -0.766860 2.312847 1.102755
v -0.811090 2.312847 1.146986
v -0.811090 2.312847 -1.146988
v 0.814626 2.317847 1.145522
v 0.814626 2.317847 -1.145523
v 0.814626 2.426368 -1.145523
v 0.814626 2.426368 1.145522
v 0.811091 2.431368 1.146986
v 0.811091 2.431368 -1.146988
v 0.766860 2.312847 1.102755
v 0.766860 2.312847 -1.102756
v 0.811091 2.312847 -1.146988
v 0.811091 2.312847 1.146986
v -0.809626 2.317847 1.150522
v 0.809626 2.317847 1.150522
v 0.809626 2.426368 1.150522
v -0.809626 2.426368 1.150522
v 0.809626 2.317847 -1.150523
v -0.809626 2.317847 -1.150523
v -0.809626 2.426368 -1.150523
v 0.809626 2.426368 -1.150523
# 28 positions

vt 0.010007 0.247188
vt 0.266579 0.247302
vt 0.266579 0.259501
vt 0.010000 0.259341
vt 0.758504 0.010007
vt 0.758335 0.266640
vt 0.746203 0.266643
vt 0.746348 0.010000
vt 0.267369 0.247349
vt 0.448703 0.247189
vt 0.448712 0.259342
vt 0.267369 0.259456
vt 0.758360 0.267432
vt 0.758503 0.448808
vt 0.746347 0.448818
vt 0.746179 0.267434
# 16 texture coordinates

vn -0.891176 -0.238908 -0.385654
vn -0.891174 -0.238944 0.385636
vn -0.891171 0.238953 0.385636
vn -0.891173 0.238917 -0.385654
vn 0.891191 -0.238875 0.385638
vn 0.891193 -0.238839 -0.385656
vn 0.891191 0.238848 -0.385657
vn 0.891189 0.238884 0.385638
vn -0.385647 -0.238945 0.891169
vn 0.385654 -0.238910 0.891175
vn 0.385654 0.238919 0.891173
vn -0.385647 0.238954 0.891166
vn 0.385645 -0.238832 -0.891200
vn -0.385638 -0.238867 -0.891194
vn -0.385638 0.238876 -0.891191
vn 0.385645 0.238841 -0.891198
# 16 normals

usemtl default
f 33/25/25 34/26/26 35/27/27 36/28/28
f 43/29/29 44/30/30 45/31/31 46/32/32
f 53/33/33 54/34/34 55/35/35 56/36/36
f 57/37/37 58/38/38 59/39/39 60/40/40

g Group41768
#pivot 0.000000 0.000000 0.000000

# 0 positions

vt 0.552972 0.450254
vt 0.552972 0.193311
vt 0.014954 0.444202
vt 0.261984 0.444202
vt 0.266938 0.449157
vt 0.010000 0.449157
vt 0.734667 0.193312
vt 0.734668 0.450255
vt 0.027815 0.428769
vt 0.274849 0.428769
vt 0.279803 0.433724
vt 0.022861 0.433724
vt 0.014944 0.413331
vt 0.186621 0.413333
vt 0.191572 0.418290
vt 0.010000 0.418281
vt 0.014946 0.395327
vt 0.186655 0.395329
vt 0.191604 0.400287
vt 0.010000 0.400278
# 20 texture coordinates

vn -0.370591 0.851649 -0.370617
vn -0.370572 0.851678 0.370568
vn -0.270024 -0.924215 -0.270026
vn -0.270038 -0.924202 0.270057
vn -0.370579 -0.851672 0.370575
vn -0.370597 -0.851643 -0.370624
vn 0.370612 0.851652 0.370589
vn 0.370631 0.851622 -0.370638
vn 0.270038 -0.924202 0.270057
vn 0.270024 -0.924215 -0.270026
vn 0.370637 -0.851617 -0.370645
vn 0.370619 -0.851646 0.370595
# 12 normals

usemtl default
f 1/1/1 3/4/3 37/41/41 38/42/42
f 39/43/43 40/44/44 41/45/45 42/46/46
f 4/3/4 2/2/2 47/47/47 48/48/48
f 49/49/49 50/50/50 51/51/51 52/52/52
f 2/2/2 1/1/1 38/42/42 47/47/47
f 40/53/44 49/54/49 52/55/52 41/56/45
f 3/4/3 4/3/4 48/48/48 37/41/41
f 50/57/50 39/58/43 42/59/46 51/60/51

g Group17808
#pivot 0.000000 0.000000 0.000000

# 0 positions

vt 0.015910 0.443516
vt 0.261028 0.443516
vt 0.028771 0.428084
vt 0.273893 0.428084
vt 0.843197 0.459728
vt 0.843166 0.989994
vt 0.468051 0.269790
vt 0.190687 0.323374
vt 0.190008 0.323070
vt 0.467838 0.270614
vt 0.542441 0.450386
vt 0.467291 0.270073
vt 0.541555 0.450418
vt 0.542145 0.449659
vt 0.309487 0.450418
vt 0.310394 0.450449
vt 0.310162 0.449720
vt 0.189998 0.323741
vt 0.015901 0.394641
vt 0.185700 0.394643
vt 0.758504 0.449600
vt 0.746348 0.449610
vt 0.552286 0.450090
vt 0.552286 0.193475
vt 0.266774 0.449843
vt 0.010164 0.449843
vt 0.449495 0.247188
vt 0.449504 0.259342
vt 0.735353 0.193476
vt 0.735354 0.450090
vt 0.279639 0.434409
vt 0.023025 0.434409
vt 0.191410 0.418976
vt 0.010095 0.418976
vt 0.553136 0.192625
vt 0.734503 0.192626
vt 0.015900 0.412645
vt 0.185666 0.412647
vt 0.734504 0.450941
vt 0.553136 0.450942
vt 0.191436 0.400971
vt 0.010080 0.400971
vt 0.015259 0.443066
vt 0.015249 0.412195
vt 0.186317 0.412197
vt 0.015250 0.394191
vt 0.552395 0.450661
vt 0.552566 0.192734
vt 0.010720 0.418573
vt 0.192180 0.400698
vt 0.735244 0.192906
vt 0.735074 0.450831
vt 0.010713 0.400607
vt 0.192151 0.418690
# 54 texture coordinates

# 0 normals

usemtl default
f 40/44/44 39/43/43 8/61/12 7/62/11
f 21/17/17 24/20/20 7/11/11 6/10/10
f 50/50/50 49/49/49 12/63/16 11/64/15
f 29/65/21 32/66/24 11/15/15 10/14/14
f 27/67/7 26/68/6 10/69/14 9/70/13
f 9/13/13 12/16/16 23/19/19 22/18/18
f 28/71/8 27/67/7 22/72/18 21/73/17
f 6/74/10 5/75/9 25/76/5 28/71/8
f 30/77/22 29/78/21 26/68/6 25/76/5
f 39/58/43 50/57/50 32/79/24 31/80/23
f 5/9/9 8/12/12 31/23/23 30/22/22
f 59/39/39 58/38/38 33/81/25 36/82/28
f 36/83/28 35/84/27 38/42/42 37/41/41
f 34/85/26 33/86/25 42/46/46 41/45/45
f 55/35/35 54/34/34 43/87/29 46/88/32
f 46/89/32 45/90/31 48/48/48 47/47/47
f 44/91/30 43/92/29 52/52/52 51/51/51
f 35/27/27 34/26/26 53/33/33 56/36/36
f 41/56/45 52/55/52 54/93/34 53/94/33
f 56/95/36 55/96/35 47/47/47 38/42/42
f 24/97/20 23/98/19 49/54/49 40/53/44
f 45/31/31 44/30/30 57/37/37 60/40/40
f 37/41/41 48/48/48 60/99/40 59/100/39
f 58/101/38 57/102/37 51/60/51 42/59/46
f 39/43/43 31/103/23 8/61/12
f 24/97/20 40/53/44 7/104/11
f 28/71/8 21/73/17 6/74/10
f 30/77/22 25/76/5 5/75/9
f 49/54/49 23/98/19 12/105/16
f 32/79/24 50/57/50 11/106/15
f 26/68/6 29/78/21 10/69/14
f 22/72/18 27/67/7 9/70/13
f 37/41/41 59/100/39 36/107/28
f 56/108/36 38/42/42 35/84/27
f 41/56/45 53/94/33 34/109/26
f 58/101/38 42/59/46 33/110/25
f 47/47/47 55/96/35 46/111/32
f 60/112/40 48/48/48 45/90/31
f 51/60/51 57/102/37 44/113/30
f 54/93/34 52/55/52 43/114/29

# 58 faces
